# xmcd CD database file
#
# Track frame offsets:
#	150
#	6890
#	12513
#	19839
#	31941
#	40101
#	47325
#	59113
#	68612
#	75053
#	79947
#	83111
#	92546
#	98657
#	106409
#	114069
#	122295
#	128112
#	137224
#	143092
#	150616
#	163541
#	175261
#	180361
#	189541
#	197378
#	204242
#	213689
#	220262
#	227254
#	238042
#	245459
#	255605
#	264350
#	277196
#	285682
#	296025
#	303926
#	314735
#	327460
#	333629
#
# Disc length: 4576 seconds
#
# Revision: 0
# Processed by: cddbd v1.5.2PL0 Copyright (c) Steve Scherf et al.
# Submitted via: CDex 1.70beta2
#
DISCID=3511de29
DTITLE=Various Artist - Salsa Megamix Volume 1, CD 1
DYEAR=1900
DGENRE=Salsa
TTITLE0=La chica del granizado  
TTITLE1=Mambo bacan  
TTITLE2=La jicara  
TTITLE3=Guantanamera  
TTITLE4=Poquito poco  
TTITLE5=No To Doy Na  
TTITLE6=Dame un chance  
TTITLE7=Me Voy Pa Bete  
TTITLE8=Preparense bailadores  
TTITLE9=New Pa Que Vea  
TTITLE10=Como les gusta  
TTITLE11=Cuida'o Cuida'o  
TTITLE12=Si por ti vivo  
TTITLE13=Bongo se fue pa l congo  
TTITLE14=Ya tu campana no suena  
TTITLE15=Timbaton  
TTITLE16=Kikiriki  
TTITLE17=Quento del sapo  
TTITLE18=Fuego en la maya  
TTITLE19=Al Lola  
TTITLE20=De cuba vengo y cubano soy  
TTITLE21=Amor es un dia intercalado  
TTITLE22=Algo mas  
TTITLE23=Canto a mi manera  
TTITLE24=Nadie balla como yo  
TTITLE25=Tambor  
TTITLE26=Mona Lisa  
TTITLE27=El son de baloy  
TTITLE28=Guitarra en son mayor  
TTITLE29=Me falta un ano  
TTITLE30=Lagrimas de licor  
TTITLE31=A buena vista  
TTITLE32=Por nuestra corbardia 
TTITLE33=Que rico son 
TTITLE34=Volveras 
TTITLE35=Para bailar guanguanco 
TTITLE36=Vengo con sed 
TTITLE37=La mas bella cancion 
TTITLE38=Parece mentira 
TTITLE39=Quando ya no me quieras 
TTITLE40=Chan Chan 
EXTD=
EXTT0=
EXTT1=
EXTT2=
EXTT3=
EXTT4=
EXTT5=
EXTT6=
EXTT7=
EXTT8=
EXTT9=
EXTT10=
EXTT11=
EXTT12=
EXTT13=
EXTT14=
EXTT15=
EXTT16=
EXTT17=
EXTT18=
EXTT19=
EXTT20=
EXTT21=
EXTT22=
EXTT23=
EXTT24=
EXTT25=
EXTT26=
EXTT27=
EXTT28=
EXTT29=
EXTT30=
EXTT31=
EXTT32=
EXTT33=
EXTT34=
EXTT35=
EXTT36=
EXTT37=
EXTT38=
EXTT39=
EXTT40=
PLAYORDER=
